# xmcd
#
# Track frame offsets: 
#        183
#        11378
#        23660
#        36315
#        47963
#        62635
#        75633
#        90063
#        105033
#        118605
#        133945
#        147813
#        162685
#        178158
#        192623
#        206988
#        222165
#        237638
#        253725
#
# Disc length: 3587 seconds
#
# Revision: 0
# Processed by: cddbd v1.5.1PL0 Copyright (c) Steve Scherf et al.
# Submitted via: ExactAudioCopy v0.95a5
#
DISCID=100e0113
DTITLE=Louis Armstrong - The Rhythm man - 4ever gold
DYEAR=1991
DGENRE=Blues
TTITLE0=My heart
TTITLE1=(Yes) I'm in the barrel
TTITLE2=Get bucket blues
TTITLE3=Come back, sweet papa
TTITLE4=Lonesome blues
TTITLE5=Sweet little papa
TTITLE6=Jazz lips
TTITLE7=Skid-Dat/De-Dat
TTITLE8=S.O.L. blues
TTITLE9=Gully low blues
TTITLE10=That's when i'll come back to you
TTITLE11=Put 'em down blues
TTITLE12=Chicago breakdown
TTITLE13=Symphonic raps
TTITLE14=Savoyagers stomp
TTITLE15=West End blues
TTITLE16=Knockin' a jug
TTITLE17=I can't give you anything but love
TTITLE18=Mahogany Hall stomp
EXTD=
EXTT0=
EXTT1=
EXTT2=
EXTT3=
EXTT4=
EXTT5=
EXTT6=
EXTT7=
EXTT8=
EXTT9=
EXTT10=
EXTT11=
EXTT12=
EXTT13=
EXTT14=
EXTT15=
EXTT16=
EXTT17=
EXTT18=
PLAYORDER=
